<?xml version="1.0" standalone="no"?>
<!DOCTYPE svg PUBLIC "-//W3C//DTD SVG 20010904//EN"
 "http://www.w3.org/TR/2001/REC-SVG-20010904/DTD/svg10.dtd">
<svg version="1.0" xmlns="http://www.w3.org/2000/svg"
 width="700.000000pt" height="700.000000pt" viewBox="0 0 700.000000 700.000000"
 preserveAspectRatio="xMidYMid meet">
<metadata>
Created by potrace 1.14, written by Peter Selinger 2001-2017
</metadata>
<g transform="translate(0.000000,700.000000) scale(0.100000,-0.100000)"
fill="#000000" stroke="none">
<path d="M3278 6996 c-1 -2 -41 -6 -88 -10 -47 -4 -101 -9 -120 -12 -139 -19
-252 -40 -360 -66 -69 -16 -132 -31 -141 -33 -146 -31 -637 -227 -599 -238 8
-3 62 -15 120 -27 118 -24 119 -24 290 -80 159 -52 421 -181 524 -259 188
-142 312 -295 388 -481 21 -49 39 -105 44 -138 3 -15 7 -33 9 -39 16 -46 22
-230 11 -337 -6 -60 -43 -224 -60 -267 -6 -13 5 -15 81 -13 48 1 210 5 360 9
l272 7 12 -44 c44 -157 156 -453 265 -705 8 -18 20 -48 28 -65 95 -219 302
-632 424 -843 50 -88 183 -297 192 -305 4 -3 11 -14 17 -24 9 -17 17 -10 66
60 235 334 512 905 672 1389 64 192 92 296 116 432 l11 63 61 -5 c34 -3 91 -7
127 -10 36 -3 103 -7 150 -10 47 -3 108 -7 135 -10 28 -2 88 -7 135 -10 47 -3
94 -8 105 -10 11 -2 22 -4 25 -4 3 -1 5 -701 4 -1556 0 -856 3 -1552 7 -1548
11 12 101 190 133 263 16 36 36 83 46 105 54 123 148 421 176 560 4 18 31 165
39 205 5 29 15 96 21 150 3 30 8 66 10 80 9 47 11 525 3 605 -15 165 -21 220
-24 225 -2 3 -6 30 -10 60 -3 30 -10 71 -15 90 -5 19 -12 51 -15 70 -13 77
-66 272 -106 390 -350 1041 -1163 1856 -2204 2208 -167 56 -419 119 -555 137
-19 3 -46 7 -60 10 -13 2 -54 7 -90 11 -36 3 -76 8 -90 11 -27 5 -536 14 -542
9z"/>
<path d="M1303 4995 c0 -737 3 -975 12 -975 13 0 247 146 360 225 262 182 584
481 732 679 185 248 252 471 182 608 -44 86 -185 195 -315 243 -27 10 -53 22
-59 26 -28 21 -331 98 -450 114 -22 3 -45 8 -52 10 -7 2 -45 7 -85 11 -40 3
-75 8 -78 10 -3 1 -57 6 -120 9 -63 4 -118 9 -121 11 -3 2 -6 -435 -6 -971z"/>
<path d="M509 5318 c-23 -40 -55 -94 -70 -120 -28 -47 -149 -293 -149 -302 0
-3 -11 -29 -24 -58 -52 -116 -142 -389 -162 -491 -2 -10 -6 -27 -9 -37 -3 -10
-7 -27 -9 -37 -31 -155 -48 -247 -52 -288 -3 -27 -7 -57 -9 -65 -27 -98 -26
-647 0 -835 3 -16 7 -48 9 -70 10 -83 18 -131 26 -165 5 -19 12 -51 15 -70 22
-130 112 -423 183 -600 66 -166 198 -422 277 -538 l23 -34 0 1891 c0 1040 -1
1891 -3 1891 -1 0 -22 -33 -46 -72z"/>
<path d="M3250 4897 c0 -17 -85 -181 -121 -234 -16 -23 -29 -44 -29 -47 0 -9
-68 -103 -149 -205 -143 -181 -346 -382 -561 -556 -52 -42 -103 -83 -113 -91
-142 -116 -493 -342 -712 -459 -49 -27 -92 -49 -93 -51 -10 -7 133 -189 203
-259 63 -64 162 -138 231 -171 71 -36 85 -39 158 -39 66 1 92 5 138 27 82 38
140 80 222 162 300 298 580 901 781 1686 51 199 62 250 54 250 -5 0 -9 -6 -9
-13z"/>
<path d="M4020 1572 l0 -1532 28 4 c15 3 43 7 62 10 347 55 761 202 1095 389
179 100 472 305 573 400 l32 31 -1 1035 c0 806 -3 1032 -12 1017 -301 -473
-465 -651 -677 -734 -89 -36 -245 -37 -331 -3 -185 72 -364 259 -584 610 -51
82 -107 174 -125 207 -18 32 -39 68 -46 79 -12 16 -14 -221 -14 -1513z"/>
<path d="M3234 2793 c-21 -32 -41 -60 -44 -63 -3 -3 -31 -40 -63 -82 -116
-156 -294 -325 -448 -423 -97 -63 -261 -136 -338 -151 -14 -3 -27 -7 -31 -9
-4 -2 -29 -7 -56 -11 -27 -3 -52 -8 -56 -10 -5 -4 -174 -5 -233 -3 -39 2 -171
30 -235 51 -90 29 -223 96 -327 165 -48 32 -91 59 -94 61 -4 1 -6 -345 -6
-771 l0 -773 101 -76 c315 -236 676 -421 1051 -538 72 -22 139 -42 150 -44 11
-2 47 -11 80 -19 142 -36 355 -71 515 -83 l76 -6 0 1421 c0 782 -1 1421 -1
1421 -1 0 -19 -26 -41 -57z"/>
</g>
</svg>
