<svg width="96" height="96" viewBox="0 0 96 96" fill="none" xmlns="http://www.w3.org/2000/svg">
<path fill-rule="evenodd" clip-rule="evenodd" d="M0 48C0 37.252 3.53257 27.329 9.5 19.3289V76.6711C3.53257 68.671 0 58.748 0 48ZM17.5 42.844V13.888C21.082 13.9742 25.2433 14.4165 28.8936 15.4482C34.7023 17.0898 37.0613 19.4967 37.1674 22.1547C37.2325 23.7858 36.598 25.8271 35.0255 28.2339C33.4716 30.6123 31.1889 33.0555 28.4824 35.378C24.9839 38.3802 21.015 40.9806 17.5 42.844ZM17.5 85.0659V61.5118C18.8102 62.7793 20.1738 63.8304 21.592 64.6474C26.2652 67.3395 31.2426 67.3029 35.7689 64.6973C39.7717 62.3931 43.1698 58.2412 46 52.9574V95.9591C35.1959 95.5163 25.3129 91.5022 17.5 85.0659ZM54 95.6286V49.2138C54.2377 49.6811 54.4765 50.1435 54.7156 50.5997C56.5274 54.0568 58.4415 57.314 60.2237 59.7594C61.1055 60.9695 62.0492 62.1122 63.0191 62.994C63.7914 63.6962 65.3839 65 67.5 65C69.505 65 71.0568 63.8493 71.8742 63.1558C72.858 62.3212 73.8099 61.2376 74.6961 60.0825C76.4355 57.8154 78.2759 54.804 80 51.5267V83.7777C72.9115 90.1221 63.9264 94.3908 54 95.6286ZM96 48C96 57.8139 93.0548 66.9399 88 74.5424V29L80.0428 28.4161C79.2722 33.6388 76.3733 41.1825 73.0552 47.544C71.4128 50.6926 69.7582 53.3759 68.3489 55.2129C68.0616 55.5874 67.7993 55.9071 67.5638 56.1765C67.3038 55.8649 67.0115 55.4904 66.6889 55.0478C65.235 53.0527 63.5284 50.1814 61.8014 46.8861C58.332 40.2663 55.1007 32.5558 53.8623 27.9594L46.0913 28.1503C44.2652 36.5505 41.9481 43.3131 39.3823 48.3486C36.7795 53.4566 34.1069 56.4232 31.7777 57.764C29.7285 58.9437 27.7931 58.9872 25.5854 57.7154C23.6909 56.624 21.5117 54.4903 19.2263 50.9342C23.8414 48.7146 29.1453 45.3509 33.6922 41.4491C36.7605 38.8161 39.6267 35.8178 41.7228 32.6097C43.8002 29.43 45.3168 25.7399 45.161 21.8357C44.8253 13.4228 37.2717 9.50266 31.0694 7.74972C28.8077 7.11051 26.4318 6.66362 24.0951 6.36668C31.1337 2.31653 39.2963 0 48 0C74.5097 0 96 21.4903 96 48Z" fill="#FB9039"/>
</svg>
