<svg width="94" height="94" viewBox="0 0 94 94" fill="none" xmlns="http://www.w3.org/2000/svg">
<path d="M0 47C0 37.6083 2.75462 28.8601 7.5 21.519V72.481C2.75462 65.1399 0 56.3917 0 47Z" fill="#FB9039"/>
<path d="M17.5 40.1532V13.9218C20.765 14.0605 24.4063 14.5017 27.6216 15.4105C33.3811 17.0382 35.0908 19.256 35.1682 21.1945C35.2219 22.5415 34.6978 24.3768 33.1884 26.687C31.7022 28.9615 29.4925 31.3354 26.8312 33.6191C23.8644 36.1651 20.5574 38.4129 17.5 40.1532Z" fill="#FB9039"/>
<path d="M17.5 83.591V62.7302C18.3408 63.4062 19.2048 64.0023 20.0928 64.5139C25.0742 67.3836 30.4319 67.3478 35.2678 64.564C38.6146 62.6374 41.5113 59.522 44 55.6436V93.9058C33.9942 93.2755 24.838 89.5144 17.5 83.591Z" fill="#FB9039"/>
<path d="M54 93.4823V52.2418C55.4679 54.9038 56.978 57.3759 58.4155 59.3484C59.3156 60.5835 60.3049 61.7871 61.3464 62.7339C62.1409 63.4563 63.9798 65 66.5 65C68.8812 65 70.6695 63.6408 71.5211 62.9183C72.5807 62.0194 73.5817 60.8745 74.4895 59.6912C75.6436 58.1869 76.8331 56.3746 78 54.3877V82.3279C71.3829 88.139 63.1194 92.1205 54 93.4823Z" fill="#FB9039"/>
<path d="M94 47C94 55.3532 91.8208 63.1975 88 69.9954V28L78.0536 27.2702C77.3064 32.3339 74.464 39.7635 71.1685 46.0815C69.5515 49.1816 67.9369 51.7975 66.5801 53.5721C66.5527 53.5349 66.5251 53.4971 66.4971 53.4588C65.0842 51.5201 63.4035 48.697 61.6871 45.4219C58.2351 38.8352 55.0397 31.1971 53.8278 26.6992L44.1847 26.9361C44.8636 24.9945 45.2455 22.9332 45.1602 20.7958C44.7958 11.6636 36.5929 7.55426 30.3414 5.78741C28.9922 5.40611 27.605 5.09198 26.2104 4.83632C32.4782 1.73993 39.5359 0 47 0C72.9574 0 94 21.0426 94 47Z" fill="#FB9039"/>
<path d="M41.5599 32.1566C42.5168 30.6921 43.371 29.1037 44.0082 27.4207C42.2113 35.5398 39.9583 42.0529 37.4913 46.8946C34.9293 51.9225 32.3684 54.6945 30.2788 55.8974C28.5392 56.8988 26.9841 56.9431 25.0846 55.8489C23.5302 54.9534 21.6808 53.2266 19.6882 50.3278C24.1357 48.0773 29.0716 44.8738 33.3434 41.208C36.4569 38.5362 39.3961 35.4685 41.5599 32.1566Z" fill="#FB9039"/>
</svg>
